<svg width="113" height="52" viewBox="0 0 113 52" fill="none" xmlns="http://www.w3.org/2000/svg">
<path d="M8.64675 26.3866C8.64695 25.5542 8.40001 24.7405 7.93714 24.0484C7.47428 23.3562 6.81629 22.8167 6.04639 22.4981C5.27649 22.1794 4.42926 22.0959 3.61185 22.2582C2.79444 22.4204 2.04357 22.8211 1.4542 23.4096C0.864826 23.9981 0.463427 24.7479 0.300765 25.5642C0.138104 26.3805 0.221486 27.2267 0.540367 27.9957C0.859247 28.7647 1.3993 29.422 2.09223 29.8844C2.78516 30.3468 3.59984 30.5937 4.43324 30.5937C4.98652 30.5938 5.5344 30.4851 6.04561 30.2737C6.55681 30.0624 7.02131 29.7525 7.41258 29.3618C7.80386 28.9711 8.11424 28.5073 8.326 27.9968C8.53776 27.4863 8.64675 26.9391 8.64675 26.3866Z" fill="black"/>
<path d="M97.9626 8.53408C102.655 8.53408 103.876 9.56122 103.876 14.1839V19.8326C103.876 24.4552 102.655 25.4824 97.9626 25.4824H97.3197V8.53408H97.9626ZM88.7696 0V51.3579H97.3146V34.0246H97.9626C109.212 34.0246 112.426 30.044 112.426 19.8367V14.1879C112.425 3.85151 109.211 0 97.8975 0H88.7696ZM62.6727 0H54.1277V51.3579H62.6727V26.6426L67.4935 51.3579H71.8677L76.6886 26.6426V51.3579H85.2336V0H76.6886L69.6827 32.2913L62.6727 0ZM42.0385 37.042C42.0385 41.9186 41.4607 43.4619 38.8249 43.4619C36.1892 43.4619 35.6104 41.9206 35.6104 37.042V0H27.0592V37.489C27.0592 47.8254 31.1731 51.998 38.8229 51.998C46.4727 51.998 50.5886 47.8274 50.5886 37.489V0H42.0385V37.042ZM14.9792 37.042C14.9792 41.9186 14.4004 43.4619 11.7657 43.4619C9.13097 43.4619 8.61217 41.9206 8.55113 37.042V33.5115H0V37.489C0 47.8274 4.11382 52 11.7637 52C19.4135 52 23.5263 47.8274 23.5263 37.489V0H14.9813L14.9792 37.042Z" fill="black"/>
</svg>
